<svg width="35" height="35" viewBox="0 0 35 35" fill="none" xmlns="http://www.w3.org/2000/svg">
<path d="M30.625 26.9792C30.625 28.9931 28.9931 30.625 26.9792 30.625H8.02083C6.0076 30.625 4.375 28.9931 4.375 26.9792V8.02083C4.375 6.00687 6.0076 4.375 8.02083 4.375H26.9792C28.9931 4.375 30.625 6.00687 30.625 8.02083V26.9792Z" fill="#0288D1"/>
<path d="M8.75 13.8542H12.3958V26.25H8.75V13.8542ZM10.562 12.3958H10.5416C9.45365 12.3958 8.75 11.585 8.75 10.5722C8.75 9.5375 9.47552 8.75 10.5831 8.75C11.6922 8.75 12.3754 9.5375 12.3958 10.5722C12.3958 11.5843 11.6922 12.3958 10.562 12.3958ZM26.25 26.25H22.6042V19.6153C22.6042 18.0126 21.7109 16.9189 20.2767 16.9189C19.1822 16.9189 18.5901 17.6568 18.3028 18.3699C18.1978 18.6251 18.2292 19.3309 18.2292 19.6875V26.25H14.5833V13.8542H18.2292V15.7617C18.7549 14.9479 19.5781 13.8542 21.684 13.8542C24.2929 13.8542 26.2493 15.4948 26.2493 19.1581L26.25 26.25Z" fill="white"/>
</svg>
