<svg width="35" height="35" viewBox="0 0 35 35" fill="none" xmlns="http://www.w3.org/2000/svg">
<path d="M13.774 23.3333H15.3125V29.1667C15.3125 29.9688 14.6563 30.625 13.8542 30.625H10.9375C10.1354 30.625 9.47917 29.9688 9.47917 29.1667V23.3333H3.56563C2.4573 23.3333 1.7573 22.1375 2.28959 21.1677L11.1198 5.22084C11.674 4.22188 13.1177 4.22188 13.6719 5.22084L17.2083 12.3229L12.4979 21.1677C11.9656 22.1375 12.6656 23.3333 13.774 23.3333Z" fill="#1DE9B6"/>
<path d="M31.4344 23.3333H25.5208V29.1667C25.5208 29.9688 24.8646 30.625 24.0625 30.625H21.1458C20.3438 30.625 19.6875 29.9688 19.6875 29.1667V23.3333H21.226C22.3344 23.3333 23.0344 22.1375 22.5021 21.1677L17.7188 12.3229L21.3281 5.22084C21.8823 4.22188 23.326 4.22188 23.8802 5.22084L32.7104 21.1677C33.2427 22.1375 32.5427 23.3333 31.4344 23.3333Z" fill="#26A69A"/>
</svg>
