<svg width="241" height="70" viewBox="0 0 241 70" fill="none" xmlns="http://www.w3.org/2000/svg">
<path d="M28.2088 15.7074C27.7887 12.0883 28.7971 8.44887 31.0289 5.53051C33.2606 2.61214 36.5476 0.634349 40.2205 0C40.3864 0.659999 41.6718 6.1433 37.8399 10.9018C34.2524 15.3479 28.9873 15.672 28.2088 15.7074Z" fill="#730202"/>
<path d="M24.964 15.0744C24.6911 14.0089 24.3502 12.9594 23.943 11.9315C23.2926 10.2886 22.8245 9.65825 23.1544 9.30515C23.3837 9.06002 23.8676 9.08045 24.1786 9.15924C25.4353 9.48316 25.8877 11.3362 26.1453 12.448C26.5615 14.4687 26.6146 16.5395 26.3024 18.5763C26.2302 18.7047 26.1045 18.9031 25.9631 18.8943C25.5547 18.8681 25.5547 17.2952 24.964 15.0744Z" fill="#730202"/>
<path d="M20.4565 22.3877C19.565 22.227 18.6796 22.106 17.8002 22.0246C16.9349 21.951 16.0656 21.9351 15.1981 21.977C14.7704 21.9949 14.3518 22.0425 13.9362 22.0901C13.5206 22.1377 13.117 22.221 12.7315 22.3252C11.9607 22.5043 11.2159 22.7793 10.5149 23.1435C9.17285 23.86 8.03388 24.8974 7.20211 26.1609C6.3472 27.4562 5.71429 28.8819 5.32885 30.3806C4.55449 33.4938 4.48969 36.7382 5.13913 39.8792C5.44241 41.4794 5.89199 43.0491 6.48233 44.5691C6.62388 44.9529 6.7835 45.3279 6.94613 45.7058C7.10876 46.0837 7.28946 46.4616 7.46112 46.8396L8.02129 48.0299L8.5905 49.2023C9.35245 50.7587 10.1686 52.2912 10.9998 53.8058C11.8311 55.3205 12.7285 56.8203 13.6561 58.2903C14.5837 59.7604 15.5474 61.2334 16.5473 62.5546C17.5472 63.8758 18.6194 65.0156 19.7427 65.5304C20.7426 66.0333 22.646 66.1761 23.5796 65.828C23.7738 65.773 23.9509 65.6707 24.0946 65.5304C24.1324 65.5005 24.1667 65.4666 24.197 65.4292C24.2391 65.3697 24.2813 65.3221 24.3295 65.2477C24.4258 65.1138 24.5282 64.9501 24.6306 64.7894C25.0312 64.1139 25.4167 63.3402 25.7901 62.5576L26.3654 61.3345C26.4376 61.1786 26.5201 61.0275 26.6123 60.8822C26.7498 60.6528 26.9213 60.4452 27.1213 60.2662L27.2267 60.174L27.3652 60.0728C27.4737 60.0009 27.5886 59.9392 27.7086 59.8883C28.0218 59.7528 28.3657 59.7014 28.7054 59.7395C29.023 59.7762 29.3269 59.8886 29.5909 60.0669C29.6831 60.1287 29.7698 60.1985 29.8499 60.2752C29.914 60.3319 29.9734 60.3936 30.0276 60.4597C30.1716 60.6263 30.2968 60.8078 30.401 61.0013C30.4853 61.15 30.5425 61.275 30.5998 61.3941C30.7112 61.6321 30.7985 61.8404 30.8859 62.0398C31.0545 62.4296 31.2322 62.8165 31.4129 63.1855C31.7434 63.8877 32.1471 64.5539 32.6176 65.1733C33.0322 65.7142 33.555 66.1649 34.1535 66.4975C34.2842 66.5619 34.419 66.6175 34.5571 66.6642C34.6759 66.7038 34.7978 66.7337 34.9215 66.7534C35.1974 66.7733 35.4747 66.7451 35.7407 66.6701C36.4659 66.4661 37.1561 66.1562 37.7886 65.7506C39.1941 64.8833 40.4456 63.7935 41.493 62.5249C42.0411 61.8791 42.5712 61.1887 43.1072 60.4805L44.7155 58.3528C45.7756 56.9334 46.7815 55.5199 47.6759 54.035C49.4791 51.0415 50.9821 47.8811 52.1633 44.5988C52.7295 42.9294 53.3078 41.254 53.7173 39.5876C54.1392 37.9285 54.3536 36.2246 54.3558 34.5139C54.3558 34.0884 54.3408 33.6569 54.3197 33.2105C54.2986 32.7642 54.2775 32.3386 54.2444 31.9101C54.1823 31.0635 54.0544 30.2229 53.8619 29.3956C53.4665 27.7627 52.6875 26.2448 51.5881 24.9647C49.4046 22.3817 45.9924 20.8492 42.5531 20.5486C35.0872 19.4982 30.2083 26.5984 23.167 28.4582L23.0586 28.1785C24.7233 27.5268 26.3395 26.7602 27.8953 25.8842C29.4544 25.0221 30.9337 24.0263 32.3164 22.9084C32.6628 22.6287 33.0181 22.343 33.3976 22.0752C33.7761 21.8097 34.1726 21.57 34.5842 21.358C35.4017 20.934 36.2565 20.5844 37.1381 20.3135C38.9055 19.7544 40.7595 19.5106 42.6133 19.5934C43.5446 19.641 44.4693 19.7755 45.375 19.9951C46.2813 20.2119 47.1655 20.5107 48.0163 20.8879C49.7495 21.6369 51.3017 22.7415 52.5699 24.1285C53.8495 25.5333 54.7778 27.215 55.2804 29.0385C55.5219 29.9364 55.6911 30.8519 55.7864 31.7762C55.8376 32.2315 55.8767 32.6838 55.9068 33.1332C55.9369 33.5825 55.9671 34.0259 55.9911 34.4931C56.0428 36.3392 55.8679 38.1848 55.4701 39.9893C55.0846 41.7897 54.5516 43.5008 54.0275 45.2178C53.4743 46.9464 52.8289 48.645 52.0941 50.3063C51.3622 51.9698 50.5611 53.5946 49.6666 55.1896C48.7722 56.7846 47.7512 58.3141 46.7212 59.7871L45.1702 61.9833C44.6522 62.7094 44.1192 63.4563 43.5349 64.1883C42.9418 64.9415 42.2925 65.6497 41.5924 66.3071C40.8791 66.9656 40.1103 67.5629 39.2945 68.0925C38.4315 68.6796 37.483 69.1331 36.4816 69.4376C35.8839 69.6162 35.2586 69.6878 34.6354 69.6488C34.312 69.619 33.9922 69.5582 33.6807 69.4673C33.3886 69.3835 33.1036 69.277 32.8284 69.1489C31.8268 68.6574 30.9419 67.9616 30.2323 67.1075C29.5892 66.3315 29.0337 65.4883 28.5759 64.593C28.3501 64.1675 28.1453 63.7538 27.9435 63.3313L27.6724 62.7629C27.6303 62.6855 27.5911 62.6082 27.564 62.5635C27.5098 62.4921 27.5369 62.5189 27.564 62.5635L27.6273 62.626C27.6663 62.6643 27.7086 62.6992 27.7537 62.7302C27.9277 62.8426 28.1256 62.9139 28.332 62.9385C28.5597 62.9631 28.79 62.9293 29.0006 62.8403C29.0691 62.8119 29.1346 62.777 29.1963 62.7361L29.2656 62.6855L29.3108 62.6498C29.4162 62.5516 29.4132 62.5368 29.4072 62.5576L29.3439 62.6974L28.8289 63.9116C28.4645 64.7507 28.0941 65.5899 27.6242 66.4678C27.5038 66.688 27.3743 66.9111 27.2237 67.1462C27.1514 67.2623 27.0581 67.3902 26.9707 67.5122C26.867 67.6529 26.7532 67.7862 26.6304 67.911C26.1523 68.421 25.5675 68.8221 24.9168 69.0864C23.8329 69.5081 22.6711 69.6988 21.5075 69.6459C21.2395 69.6459 20.9715 69.625 20.7064 69.5983C20.5739 69.5983 20.4354 69.5715 20.3119 69.5536C20.1884 69.5358 20.0288 69.509 19.8873 69.4852C19.3112 69.3858 18.7478 69.2252 18.2068 69.0061C17.1769 68.5742 16.2264 67.9769 15.3939 67.2385C14.6473 66.5787 13.9498 65.8666 13.3068 65.1078C12.063 63.6467 10.9908 62.1945 9.92165 60.7037C8.85251 59.2128 7.86468 57.6744 6.90998 56.118C5.95528 54.5617 5.07287 52.9548 4.22056 51.336C4.00975 50.9313 3.79893 50.5265 3.59414 50.1159L2.98879 48.9167C2.58222 48.0686 2.18467 47.1877 1.8564 46.2861C1.16825 44.4812 0.663814 42.6131 0.350566 40.7095C-0.272849 36.8975 -0.119254 32.8743 1.25407 29.104C1.93225 27.1976 2.96376 25.4326 4.29585 23.8993C4.98376 23.1247 5.76682 22.438 6.62688 21.855C7.0604 21.5644 7.51317 21.303 7.98213 21.0724C8.21403 20.9504 8.46401 20.8641 8.70193 20.7748C8.93925 20.6704 9.18382 20.5829 9.43376 20.5129C10.4014 20.2049 11.4082 20.0336 12.4243 20.0041C13.3991 19.9643 14.3752 20.0352 15.3336 20.2153C16.2575 20.3856 17.1644 20.6355 18.0441 20.9623C18.9117 21.2791 19.7517 21.6652 20.5559 22.1169L20.4565 22.3877Z" fill="#730202"/>
<path d="M28.6921 39.1548C30.7922 39.1548 32.4946 37.4731 32.4946 35.3987C32.4946 33.3242 30.7922 31.6426 28.6921 31.6426C26.5921 31.6426 24.8896 33.3242 24.8896 35.3987C24.8896 37.4731 26.5921 39.1548 28.6921 39.1548Z" fill="black"/>
<path d="M14.7492 39.8377C15.5128 39.8377 16.1319 39.2262 16.1319 38.4718C16.1319 37.7175 15.5128 37.106 14.7492 37.106C13.9855 37.106 13.3665 37.7175 13.3665 38.4718C13.3665 39.2262 13.9855 39.8377 14.7492 39.8377Z" fill="black"/>
<path d="M42.9792 39.8377C43.6792 39.8377 44.2466 39.2262 44.2466 38.4718C44.2466 37.7175 43.6792 37.106 42.9792 37.106C42.2791 37.106 41.7117 37.7175 41.7117 38.4718C41.7117 39.2262 42.2791 39.8377 42.9792 39.8377Z" fill="black"/>
<path d="M36.7575 56.0008C37.4575 56.0008 38.025 55.3892 38.025 54.6349C38.025 53.8806 37.4575 53.269 36.7575 53.269C36.0575 53.269 35.49 53.8806 35.49 54.6349C35.49 55.3892 36.0575 56.0008 36.7575 56.0008Z" fill="black"/>
<path d="M20.7409 56.0008C21.5045 56.0008 22.1236 55.3892 22.1236 54.6349C22.1236 53.8806 21.5045 53.269 20.7409 53.269C19.9772 53.269 19.3582 53.8806 19.3582 54.6349C19.3582 55.3892 19.9772 56.0008 20.7409 56.0008Z" fill="black"/>
<path d="M15.9019 39.2452C19.7434 41.7636 24.2556 43.0793 28.8563 43.0226C33.457 42.9658 37.935 41.5392 41.7126 38.9268" stroke="black" stroke-width="2" stroke-miterlimit="10"/>
<path d="M21.6624 53.7239L28.7745 43.48L35.9504 53.7239" stroke="black" stroke-width="2" stroke-miterlimit="10"/>
<g clip-path="url(#clip0_993_12188)">
<path d="M87.6867 28.0828V54.1108H85.2027C84.8187 54.1108 84.4947 54.0508 84.2307 53.9308C83.9787 53.7988 83.7327 53.5828 83.4927 53.2828L69.9027 35.9308C69.9747 36.7228 70.0107 37.4548 70.0107 38.1268V54.1108H65.7447V28.0828H68.2827C68.4867 28.0828 68.6607 28.0948 68.8047 28.1188C68.9607 28.1308 69.0927 28.1668 69.2007 28.2268C69.3207 28.2748 69.4347 28.3528 69.5427 28.4608C69.6507 28.5568 69.7707 28.6888 69.9027 28.8568L83.5467 46.2808C83.5107 45.8608 83.4807 45.4468 83.4567 45.0388C83.4327 44.6308 83.4207 44.2528 83.4207 43.9048V28.0828H87.6867ZM108.341 35.6428V54.1108H105.623C105.035 54.1108 104.663 53.8408 104.507 53.3008L104.201 51.8248C103.445 52.5928 102.611 53.2168 101.699 53.6968C100.787 54.1648 99.7134 54.3988 98.4774 54.3988C97.4694 54.3988 96.5754 54.2308 95.7954 53.8948C95.0274 53.5468 94.3794 53.0608 93.8514 52.4368C93.3234 51.8128 92.9214 51.0748 92.6454 50.2228C92.3814 49.3588 92.2494 48.4108 92.2494 47.3788V35.6428H96.6954V47.3788C96.6954 48.5068 96.9534 49.3828 97.4694 50.0068C97.9974 50.6188 98.7834 50.9248 99.8274 50.9248C100.595 50.9248 101.315 50.7568 101.987 50.4208C102.659 50.0728 103.295 49.5988 103.895 48.9988V35.6428H108.341ZM118.906 54.3988C117.298 54.3988 116.062 53.9488 115.198 53.0488C114.346 52.1368 113.92 50.8828 113.92 49.2868V38.9728H112.03C111.79 38.9728 111.586 38.8948 111.418 38.7388C111.25 38.5828 111.166 38.3488 111.166 38.0368V36.2728L114.136 35.7868L115.072 30.7468C115.132 30.5068 115.246 30.3208 115.414 30.1888C115.582 30.0568 115.798 29.9908 116.062 29.9908H118.366V35.8048H123.298V38.9728H118.366V48.9808C118.366 49.5568 118.504 50.0068 118.78 50.3308C119.068 50.6548 119.458 50.8168 119.95 50.8168C120.226 50.8168 120.454 50.7868 120.634 50.7268C120.826 50.6548 120.988 50.5828 121.12 50.5108C121.264 50.4388 121.39 50.3728 121.498 50.3128C121.606 50.2408 121.714 50.2048 121.822 50.2048C121.954 50.2048 122.062 50.2408 122.146 50.3128C122.23 50.3728 122.32 50.4688 122.416 50.6008L123.748 52.7608C123.1 53.3008 122.356 53.7088 121.516 53.9848C120.676 54.2608 119.806 54.3988 118.906 54.3988ZM130.338 38.8468C130.914 37.7428 131.598 36.8788 132.39 36.2548C133.182 35.6188 134.118 35.3008 135.198 35.3008C136.05 35.3008 136.734 35.4868 137.25 35.8588L136.962 39.1888C136.902 39.4048 136.812 39.5608 136.692 39.6568C136.584 39.7408 136.434 39.7828 136.242 39.7828C136.062 39.7828 135.792 39.7528 135.432 39.6928C135.084 39.6328 134.742 39.6028 134.406 39.6028C133.914 39.6028 133.476 39.6748 133.092 39.8188C132.708 39.9628 132.36 40.1728 132.048 40.4488C131.748 40.7128 131.478 41.0368 131.238 41.4208C131.01 41.8048 130.794 42.2428 130.59 42.7348V54.1108H126.144V35.6428H128.754C129.21 35.6428 129.528 35.7268 129.708 35.8948C129.888 36.0508 130.008 36.3388 130.068 36.7588L130.338 38.8468ZM144.182 35.6428V54.1108H139.718V35.6428H144.182ZM144.794 30.2608C144.794 30.6448 144.716 31.0048 144.56 31.3408C144.404 31.6768 144.194 31.9708 143.93 32.2228C143.678 32.4748 143.378 32.6788 143.03 32.8348C142.682 32.9788 142.31 33.0508 141.914 33.0508C141.53 33.0508 141.164 32.9788 140.816 32.8348C140.48 32.6788 140.186 32.4748 139.934 32.2228C139.682 31.9708 139.478 31.6768 139.322 31.3408C139.178 31.0048 139.106 30.6448 139.106 30.2608C139.106 29.8648 139.178 29.4928 139.322 29.1448C139.478 28.7968 139.682 28.4968 139.934 28.2448C140.186 27.9928 140.48 27.7948 140.816 27.6508C141.164 27.4948 141.53 27.4168 141.914 27.4168C142.31 27.4168 142.682 27.4948 143.03 27.6508C143.378 27.7948 143.678 27.9928 143.93 28.2448C144.194 28.4968 144.404 28.7968 144.56 29.1448C144.716 29.4928 144.794 29.8648 144.794 30.2608ZM163.133 44.2828L159.965 35.6248C159.809 35.2408 159.647 34.7848 159.479 34.2568C159.311 33.7288 159.143 33.1588 158.975 32.5468C158.819 33.1588 158.657 33.7348 158.489 34.2748C158.321 34.8028 158.159 35.2648 158.003 35.6608L154.853 44.2828H163.133ZM171.683 54.1108H167.939C167.519 54.1108 167.177 54.0088 166.913 53.8048C166.649 53.5888 166.451 53.3248 166.319 53.0128L164.375 47.7028H153.593L151.649 53.0128C151.553 53.2888 151.367 53.5408 151.091 53.7688C150.815 53.9968 150.473 54.1108 150.065 54.1108H146.285L156.527 28.0828H161.459L171.683 54.1108ZM186.413 39.5488C186.281 39.7168 186.149 39.8488 186.017 39.9448C185.897 40.0408 185.717 40.0888 185.477 40.0888C185.249 40.0888 185.027 40.0228 184.811 39.8908C184.595 39.7468 184.337 39.5908 184.037 39.4228C183.737 39.2428 183.377 39.0868 182.957 38.9548C182.549 38.8108 182.039 38.7388 181.427 38.7388C180.647 38.7388 179.963 38.8828 179.375 39.1708C178.787 39.4468 178.295 39.8488 177.899 40.3768C177.515 40.9048 177.227 41.5468 177.035 42.3028C176.843 43.0468 176.747 43.8928 176.747 44.8408C176.747 45.8248 176.849 46.7008 177.053 47.4688C177.269 48.2368 177.575 48.8848 177.971 49.4128C178.367 49.9288 178.847 50.3248 179.411 50.6008C179.975 50.8648 180.611 50.9968 181.319 50.9968C182.027 50.9968 182.597 50.9128 183.029 50.7448C183.473 50.5648 183.845 50.3728 184.145 50.1688C184.445 49.9528 184.703 49.7608 184.919 49.5928C185.147 49.4128 185.399 49.3228 185.675 49.3228C186.035 49.3228 186.305 49.4608 186.485 49.7368L187.763 51.3568C187.271 51.9328 186.737 52.4188 186.161 52.8148C185.585 53.1988 184.985 53.5108 184.361 53.7508C183.749 53.9788 183.113 54.1408 182.453 54.2368C181.805 54.3328 181.157 54.3808 180.509 54.3808C179.369 54.3808 178.295 54.1708 177.287 53.7508C176.279 53.3188 175.397 52.6948 174.641 51.8788C173.885 51.0628 173.285 50.0668 172.841 48.8908C172.409 47.7028 172.193 46.3528 172.193 44.8408C172.193 43.4848 172.385 42.2308 172.769 41.0788C173.165 39.9148 173.741 38.9128 174.497 38.0728C175.253 37.2208 176.189 36.5548 177.305 36.0748C178.421 35.5948 179.705 35.3548 181.157 35.3548C182.537 35.3548 183.743 35.5768 184.775 36.0208C185.819 36.4648 186.755 37.1008 187.583 37.9288L186.413 39.5488ZM202.132 42.7528C202.132 42.1768 202.048 41.6368 201.88 41.1328C201.724 40.6168 201.484 40.1668 201.16 39.7828C200.836 39.3988 200.422 39.0988 199.918 38.8828C199.426 38.6548 198.85 38.5408 198.19 38.5408C196.906 38.5408 195.892 38.9068 195.148 39.6388C194.416 40.3708 193.948 41.4088 193.744 42.7528H202.132ZM193.654 45.4348C193.726 46.3828 193.894 47.2048 194.158 47.9008C194.422 48.5848 194.77 49.1548 195.202 49.6108C195.634 50.0548 196.144 50.3908 196.732 50.6188C197.332 50.8348 197.992 50.9428 198.712 50.9428C199.432 50.9428 200.05 50.8588 200.566 50.6908C201.094 50.5228 201.55 50.3368 201.934 50.1328C202.33 49.9288 202.672 49.7428 202.96 49.5748C203.26 49.4068 203.548 49.3228 203.824 49.3228C204.196 49.3228 204.472 49.4608 204.652 49.7368L205.93 51.3568C205.438 51.9328 204.886 52.4188 204.274 52.8148C203.662 53.1988 203.02 53.5108 202.348 53.7508C201.688 53.9788 201.01 54.1408 200.314 54.2368C199.63 54.3328 198.964 54.3808 198.316 54.3808C197.032 54.3808 195.838 54.1708 194.734 53.7508C193.63 53.3188 192.67 52.6888 191.854 51.8608C191.038 51.0208 190.396 49.9888 189.928 48.7648C189.46 47.5288 189.226 46.1008 189.226 44.4808C189.226 43.2208 189.43 42.0388 189.838 40.9348C190.246 39.8188 190.828 38.8528 191.584 38.0368C192.352 37.2088 193.282 36.5548 194.374 36.0748C195.478 35.5948 196.72 35.3548 198.1 35.3548C199.264 35.3548 200.338 35.5408 201.322 35.9128C202.306 36.2848 203.152 36.8308 203.86 37.5508C204.568 38.2588 205.12 39.1348 205.516 40.1788C205.924 41.2108 206.128 42.3928 206.128 43.7248C206.128 44.3968 206.056 44.8528 205.912 45.0928C205.768 45.3208 205.492 45.4348 205.084 45.4348H193.654ZM220.733 39.2428C220.613 39.4348 220.487 39.5728 220.355 39.6568C220.223 39.7288 220.055 39.7648 219.851 39.7648C219.635 39.7648 219.401 39.7048 219.149 39.5848C218.909 39.4648 218.627 39.3328 218.303 39.1888C217.979 39.0328 217.607 38.8948 217.187 38.7748C216.779 38.6548 216.293 38.5948 215.729 38.5948C214.853 38.5948 214.163 38.7808 213.659 39.1528C213.167 39.5248 212.921 40.0108 212.921 40.6108C212.921 41.0068 213.047 41.3428 213.299 41.6188C213.563 41.8828 213.905 42.1168 214.325 42.3208C214.757 42.5248 215.243 42.7108 215.783 42.8788C216.323 43.0348 216.869 43.2088 217.421 43.4008C217.985 43.5928 218.537 43.8148 219.077 44.0668C219.617 44.3068 220.097 44.6188 220.517 45.0028C220.949 45.3748 221.291 45.8248 221.543 46.3528C221.807 46.8808 221.939 47.5168 221.939 48.2608C221.939 49.1488 221.777 49.9708 221.453 50.7268C221.141 51.4708 220.673 52.1188 220.049 52.6708C219.425 53.2108 218.651 53.6368 217.727 53.9488C216.815 54.2488 215.759 54.3988 214.559 54.3988C213.923 54.3988 213.299 54.3388 212.687 54.2188C212.087 54.1108 211.505 53.9548 210.941 53.7508C210.389 53.5468 209.873 53.3068 209.393 53.0308C208.925 52.7548 208.511 52.4548 208.151 52.1308L209.177 50.4388C209.309 50.2348 209.465 50.0788 209.645 49.9708C209.825 49.8628 210.053 49.8088 210.329 49.8088C210.605 49.8088 210.863 49.8868 211.103 50.0428C211.355 50.1988 211.643 50.3668 211.967 50.5468C212.291 50.7268 212.669 50.8948 213.101 51.0508C213.545 51.2068 214.103 51.2848 214.775 51.2848C215.303 51.2848 215.753 51.2248 216.125 51.1048C216.509 50.9728 216.821 50.8048 217.061 50.6008C217.313 50.3968 217.493 50.1628 217.601 49.8988C217.721 49.6228 217.781 49.3408 217.781 49.0528C217.781 48.6208 217.649 48.2668 217.385 47.9908C217.133 47.7148 216.791 47.4748 216.359 47.2708C215.939 47.0668 215.453 46.8868 214.901 46.7308C214.361 46.5628 213.803 46.3828 213.227 46.1908C212.663 45.9988 212.105 45.7768 211.553 45.5248C211.013 45.2608 210.527 44.9308 210.095 44.5348C209.675 44.1388 209.333 43.6528 209.069 43.0768C208.817 42.5008 208.691 41.8048 208.691 40.9888C208.691 40.2328 208.841 39.5128 209.141 38.8288C209.441 38.1448 209.879 37.5508 210.455 37.0468C211.043 36.5308 211.769 36.1228 212.633 35.8228C213.509 35.5108 214.517 35.3548 215.657 35.3548C216.929 35.3548 218.087 35.5648 219.131 35.9848C220.175 36.4048 221.045 36.9568 221.741 37.6408L220.733 39.2428ZM236.553 39.2428C236.433 39.4348 236.307 39.5728 236.175 39.6568C236.043 39.7288 235.875 39.7648 235.671 39.7648C235.455 39.7648 235.221 39.7048 234.969 39.5848C234.729 39.4648 234.447 39.3328 234.123 39.1888C233.799 39.0328 233.427 38.8948 233.007 38.7748C232.599 38.6548 232.113 38.5948 231.549 38.5948C230.673 38.5948 229.983 38.7808 229.479 39.1528C228.987 39.5248 228.741 40.0108 228.741 40.6108C228.741 41.0068 228.867 41.3428 229.119 41.6188C229.383 41.8828 229.725 42.1168 230.145 42.3208C230.577 42.5248 231.063 42.7108 231.603 42.8788C232.143 43.0348 232.689 43.2088 233.241 43.4008C233.805 43.5928 234.357 43.8148 234.897 44.0668C235.437 44.3068 235.917 44.6188 236.337 45.0028C236.769 45.3748 237.111 45.8248 237.363 46.3528C237.627 46.8808 237.759 47.5168 237.759 48.2608C237.759 49.1488 237.597 49.9708 237.273 50.7268C236.961 51.4708 236.493 52.1188 235.869 52.6708C235.245 53.2108 234.471 53.6368 233.547 53.9488C232.635 54.2488 231.579 54.3988 230.379 54.3988C229.743 54.3988 229.119 54.3388 228.507 54.2188C227.907 54.1108 227.325 53.9548 226.761 53.7508C226.209 53.5468 225.693 53.3068 225.213 53.0308C224.745 52.7548 224.331 52.4548 223.971 52.1308L224.997 50.4388C225.129 50.2348 225.285 50.0788 225.465 49.9708C225.645 49.8628 225.873 49.8088 226.149 49.8088C226.425 49.8088 226.683 49.8868 226.923 50.0428C227.175 50.1988 227.463 50.3668 227.787 50.5468C228.111 50.7268 228.489 50.8948 228.921 51.0508C229.365 51.2068 229.923 51.2848 230.595 51.2848C231.123 51.2848 231.573 51.2248 231.945 51.1048C232.329 50.9728 232.641 50.8048 232.881 50.6008C233.133 50.3968 233.313 50.1628 233.421 49.8988C233.541 49.6228 233.601 49.3408 233.601 49.0528C233.601 48.6208 233.469 48.2668 233.205 47.9908C232.953 47.7148 232.611 47.4748 232.179 47.2708C231.759 47.0668 231.273 46.8868 230.721 46.7308C230.181 46.5628 229.623 46.3828 229.047 46.1908C228.483 45.9988 227.925 45.7768 227.373 45.5248C226.833 45.2608 226.347 44.9308 225.915 44.5348C225.495 44.1388 225.153 43.6528 224.889 43.0768C224.637 42.5008 224.511 41.8048 224.511 40.9888C224.511 40.2328 224.661 39.5128 224.961 38.8288C225.261 38.1448 225.699 37.5508 226.275 37.0468C226.863 36.5308 227.589 36.1228 228.453 35.8228C229.329 35.5108 230.337 35.3548 231.477 35.3548C232.749 35.3548 233.907 35.5648 234.951 35.9848C235.995 36.4048 236.865 36.9568 237.561 37.6408L236.553 39.2428Z" fill="#F37F30"/>
</g>
<defs>
<clipPath id="clip0_993_12188">
<rect width="178" height="36" fill="white" transform="translate(63 20)"/>
</clipPath>
</defs>
</svg>
