<svg width="66" height="66" viewBox="0 0 66 66" fill="none" xmlns="http://www.w3.org/2000/svg">
<path d="M36.6667 66V58.6667H44V66H36.6667ZM29.3333 58.6667V40.3333H36.6667V58.6667H29.3333ZM58.6667 47.6667V33H66V47.6667H58.6667ZM51.3333 33V25.6667H58.6667V33H51.3333ZM7.33333 40.3333V33H14.6667V40.3333H7.33333ZM0 33V25.6667H7.33333V33H0ZM33 7.33333V0H40.3333V7.33333H33ZM5.5 16.5H16.5V5.5H5.5V16.5ZM0 22V0H22V22H0ZM5.5 60.5H16.5V49.5H5.5V60.5ZM0 66V44H22V66H0ZM49.5 16.5H60.5V5.5H49.5V16.5ZM44 22V0H66V22H44ZM51.3333 66V55H44V47.6667H58.6667V58.6667H66V66H51.3333ZM36.6667 40.3333V33H51.3333V40.3333H36.6667ZM22 40.3333V33H14.6667V25.6667H36.6667V33H29.3333V40.3333H22ZM25.6667 22V7.33333H33V14.6667H40.3333V22H25.6667ZM8.25 13.75V8.25H13.75V13.75H8.25ZM8.25 57.75V52.25H13.75V57.75H8.25ZM52.25 13.75V8.25H57.75V13.75H52.25Z" fill="black"/>
</svg>
