<svg width="65" height="65" viewBox="0 0 65 65" fill="none" xmlns="http://www.w3.org/2000/svg">
<g clip-path="url(#clip0_918_12336)">
<path fill-rule="evenodd" clip-rule="evenodd" d="M20.0247 42.8986V27.3443C20.0247 22.029 25.5551 20.91 29.5214 22.4207V25.3861C26.7841 24.2671 23.7116 24.5468 23.7116 27.9598H28.1248V30.9252H23.7116V42.8426L20.0247 42.8986Z" fill="#FCB823"/>
<path fill-rule="evenodd" clip-rule="evenodd" d="M37.6215 25.6659H40.3588L40.9174 27.9599H44.3251V30.9252H41.3085V37.8072C41.3085 39.2059 41.923 39.8773 43.0961 39.8773H44.9954V42.8427H41.3085C38.8505 42.8427 37.5657 41.4999 37.5657 38.8702V25.6659H37.6215Z" fill="#FCB823"/>
<path d="M34.7724 27.9598H31.0295V42.8427H34.7724V27.9598Z" fill="#FCB823"/>
<path d="M34.7724 22.5886H31.0295V25.6659H34.7724V22.5886Z" fill="#FCB823"/>
<path fill-rule="evenodd" clip-rule="evenodd" d="M48.1797 42.8427C44.8837 48.046 39.1298 51.459 32.5379 51.459C25.9461 51.459 20.1922 48.046 16.8962 42.8427C20.7508 46.4235 26.3372 48.6055 32.5379 48.6055C38.7388 48.6615 44.3251 46.4235 48.1797 42.8427Z" fill="#FCB823"/>
<path d="M20.136 19.3077V18.2555C20.6905 18.4894 21.3617 18.6063 22.0911 18.6063C22.6456 18.6063 22.9082 18.4309 22.9082 18.0802C22.9082 17.7587 22.7331 17.5833 22.3538 17.5833H21.4491C20.4279 17.5833 19.9026 17.0573 19.9026 16.0343C19.9026 14.9822 20.6613 14.4561 22.1495 14.4561C22.7915 14.4561 23.3751 14.5438 23.9587 14.7484V15.8005C23.4043 15.5667 22.7915 15.4498 22.1203 15.4498C21.42 15.4498 21.099 15.6252 21.099 15.9759C21.099 16.2974 21.3033 16.4727 21.7118 16.4727H22.5289C23.6377 16.4727 24.2214 16.9988 24.2214 18.0217C24.2214 19.0739 23.4918 19.6 22.062 19.6C21.3325 19.6 20.7196 19.4831 20.136 19.3077ZM25.0676 19.5415V14.4853H26.0597L26.2057 15.1283C26.7893 14.6899 27.3729 14.4853 27.9273 14.4853C28.5693 14.4853 29.007 14.7191 29.2697 15.1868C29.9116 14.7191 30.5245 14.4853 31.0789 14.4853C32.1586 14.4853 32.6838 15.1283 32.6838 16.4143V19.5415H31.3998V16.3558C31.3998 15.8005 31.1664 15.5083 30.6995 15.5083C30.3201 15.5083 29.9116 15.7128 29.5031 16.1512V19.5415H28.2192V16.3558C28.2192 15.7713 27.9857 15.5083 27.5188 15.5083C27.1102 15.5083 26.7017 15.7128 26.3224 16.1512V19.5415H25.0676ZM33.6468 17.9633C33.6468 16.9111 34.3763 16.4143 35.8353 16.4143C36.273 16.4143 36.6816 16.4435 37.0026 16.502V16.1805C37.0026 15.7421 36.5649 15.5083 35.6895 15.5083C35.135 15.5083 34.5806 15.5959 34.0553 15.7421V14.7191C34.6098 14.573 35.1642 14.4853 35.6895 14.4853C37.4111 14.4853 38.2865 15.0406 38.2865 16.1512V19.5415H37.6446L37.0901 19.1908C36.6524 19.4246 36.1855 19.5415 35.6895 19.5415C34.318 19.5415 33.6468 19.0154 33.6468 17.9633ZM37.0026 17.4664C36.6816 17.408 36.3023 17.3788 35.8353 17.3788C35.2226 17.3788 34.9015 17.5833 34.9015 17.9633C34.9015 18.3432 35.1642 18.5478 35.6603 18.5478C36.1855 18.5478 36.6233 18.4017 36.9734 18.1386V17.4664H37.0026ZM39.5413 19.5415V14.4853H40.5335L40.6794 15.1283C41.1171 14.6899 41.584 14.4853 42.0801 14.4853V15.5083C41.6131 15.5083 41.1754 15.7129 40.7961 16.1512V19.5415H39.5413ZM42.8679 13.667H43.8017L44.006 14.4853H45.1732V15.5083H44.1519V17.8464C44.1519 18.314 44.3561 18.5478 44.7647 18.5478H45.1732V19.5707H44.1227C43.2765 19.5707 42.8388 19.1031 42.8388 18.1971V13.667H42.8679Z" fill="#8A8B8F"/>
</g>
<defs>
<clipPath id="clip0_918_12336">
<rect width="63.5621" height="63.6615" fill="white" transform="translate(0.756836 0.7323)"/>
</clipPath>
</defs>
</svg>
