<svg width="390" height="39" viewBox="0 0 390 39" fill="none" xmlns="http://www.w3.org/2000/svg">
<path d="M321.42 0.48H322.692L326.004 9H324.588L323.688 6.684H320.4L319.512 9H318.084L321.42 0.48ZM323.424 5.688L322.056 1.956L320.64 5.688H323.424ZM326.23 11.292C325.942 11.292 325.67 11.248 325.414 11.16C325.15 11.072 324.918 10.936 324.718 10.752L325.306 9.864C325.402 9.96 325.522 10.028 325.666 10.068C325.802 10.116 325.938 10.14 326.074 10.14C326.234 10.14 326.378 10.1 326.506 10.02C326.642 9.94 326.75 9.828 326.83 9.684C326.918 9.548 326.962 9.396 326.962 9.228V2.724H328.282V9.132C328.282 9.548 328.186 9.92 327.994 10.248C327.81 10.576 327.562 10.832 327.25 11.016C326.946 11.2 326.606 11.292 326.23 11.292ZM326.962 1.692V0.24H328.282V1.692H326.962ZM329.806 6.564V2.724H331.126V6.3C331.126 6.86 331.226 7.284 331.426 7.572C331.634 7.852 331.934 7.992 332.326 7.992C332.574 7.992 332.814 7.94 333.046 7.836C333.286 7.732 333.502 7.58 333.694 7.38C333.894 7.172 334.054 6.924 334.174 6.636V2.724H335.494V7.512C335.494 7.664 335.522 7.772 335.578 7.836C335.634 7.9 335.726 7.936 335.854 7.944V9C335.718 9.024 335.606 9.04 335.518 9.048C335.43 9.056 335.346 9.06 335.266 9.06C335.026 9.06 334.826 8.996 334.666 8.868C334.506 8.732 334.414 8.56 334.39 8.352L334.366 7.728C334.086 8.184 333.722 8.532 333.274 8.772C332.826 9.004 332.334 9.12 331.798 9.12C331.142 9.12 330.646 8.904 330.31 8.472C329.974 8.04 329.806 7.404 329.806 6.564ZM339.411 9.12C338.883 9.12 338.383 9.036 337.911 8.868C337.439 8.692 337.035 8.432 336.699 8.088L337.191 7.2C337.551 7.52 337.911 7.752 338.271 7.896C338.639 8.04 339.003 8.112 339.363 8.112C339.731 8.112 340.031 8.044 340.263 7.908C340.495 7.764 340.611 7.556 340.611 7.284C340.611 7.084 340.551 6.936 340.431 6.84C340.311 6.744 340.135 6.66 339.903 6.588C339.679 6.516 339.407 6.436 339.087 6.348C338.639 6.212 338.263 6.072 337.959 5.928C337.655 5.776 337.427 5.592 337.275 5.376C337.123 5.16 337.047 4.884 337.047 4.548C337.047 4.14 337.151 3.792 337.359 3.504C337.567 3.216 337.855 2.996 338.223 2.844C338.599 2.692 339.031 2.616 339.519 2.616C339.975 2.616 340.395 2.688 340.779 2.832C341.171 2.968 341.515 3.184 341.811 3.48L341.247 4.356C340.967 4.1 340.679 3.912 340.383 3.792C340.095 3.672 339.783 3.612 339.447 3.612C339.255 3.612 339.071 3.636 338.895 3.684C338.719 3.724 338.571 3.804 338.451 3.924C338.339 4.036 338.283 4.196 338.283 4.404C338.283 4.572 338.331 4.708 338.427 4.812C338.523 4.916 338.667 5.004 338.859 5.076C339.051 5.148 339.287 5.228 339.567 5.316C340.055 5.46 340.471 5.604 340.815 5.748C341.159 5.884 341.423 6.064 341.607 6.288C341.799 6.504 341.895 6.804 341.895 7.188C341.895 7.796 341.667 8.272 341.211 8.616C340.763 8.952 340.163 9.12 339.411 9.12ZM346.554 8.676C346.442 8.732 346.302 8.792 346.134 8.856C345.966 8.92 345.774 8.976 345.558 9.024C345.35 9.072 345.134 9.096 344.91 9.096C344.638 9.096 344.386 9.048 344.154 8.952C343.922 8.856 343.734 8.704 343.59 8.496C343.454 8.28 343.386 8.004 343.386 7.668V3.744H342.558V2.724H343.386V0.659999H344.706V2.724H346.074V3.744H344.706V7.248C344.722 7.464 344.79 7.624 344.91 7.728C345.038 7.832 345.194 7.884 345.378 7.884C345.562 7.884 345.738 7.852 345.906 7.788C346.074 7.724 346.198 7.672 346.278 7.632L346.554 8.676ZM350.23 9.12C349.742 9.12 349.298 9.036 348.898 8.868C348.506 8.692 348.166 8.456 347.878 8.16C347.59 7.856 347.366 7.512 347.206 7.128C347.054 6.736 346.978 6.32 346.978 5.88C346.978 5.288 347.114 4.748 347.386 4.26C347.658 3.764 348.038 3.368 348.526 3.072C349.014 2.768 349.586 2.616 350.242 2.616C350.898 2.616 351.462 2.768 351.934 3.072C352.414 3.368 352.786 3.76 353.05 4.248C353.314 4.736 353.446 5.26 353.446 5.82C353.446 5.916 353.442 6.008 353.434 6.096C353.426 6.176 353.418 6.244 353.41 6.3H348.382C348.406 6.668 348.506 6.992 348.682 7.272C348.866 7.544 349.098 7.76 349.378 7.92C349.658 8.072 349.958 8.148 350.278 8.148C350.63 8.148 350.962 8.06 351.274 7.884C351.594 7.708 351.81 7.476 351.922 7.188L353.05 7.512C352.914 7.816 352.706 8.092 352.426 8.34C352.154 8.58 351.83 8.772 351.454 8.916C351.078 9.052 350.67 9.12 350.23 9.12ZM348.346 5.424H352.138C352.114 5.064 352.01 4.748 351.826 4.476C351.65 4.196 351.422 3.98 351.142 3.828C350.87 3.668 350.566 3.588 350.23 3.588C349.902 3.588 349.598 3.668 349.318 3.828C349.046 3.98 348.822 4.196 348.646 4.476C348.47 4.748 348.37 5.064 348.346 5.424ZM356.754 9.12C356.226 9.12 355.726 9.036 355.254 8.868C354.782 8.692 354.378 8.432 354.042 8.088L354.534 7.2C354.894 7.52 355.254 7.752 355.614 7.896C355.982 8.04 356.346 8.112 356.706 8.112C357.074 8.112 357.374 8.044 357.606 7.908C357.838 7.764 357.954 7.556 357.954 7.284C357.954 7.084 357.894 6.936 357.774 6.84C357.654 6.744 357.478 6.66 357.246 6.588C357.022 6.516 356.75 6.436 356.43 6.348C355.982 6.212 355.606 6.072 355.302 5.928C354.998 5.776 354.77 5.592 354.618 5.376C354.466 5.16 354.39 4.884 354.39 4.548C354.39 4.14 354.494 3.792 354.702 3.504C354.91 3.216 355.198 2.996 355.566 2.844C355.942 2.692 356.374 2.616 356.862 2.616C357.318 2.616 357.738 2.688 358.122 2.832C358.514 2.968 358.858 3.184 359.154 3.48L358.59 4.356C358.31 4.1 358.022 3.912 357.726 3.792C357.438 3.672 357.126 3.612 356.79 3.612C356.598 3.612 356.414 3.636 356.238 3.684C356.062 3.724 355.914 3.804 355.794 3.924C355.682 4.036 355.626 4.196 355.626 4.404C355.626 4.572 355.674 4.708 355.77 4.812C355.866 4.916 356.01 5.004 356.202 5.076C356.394 5.148 356.63 5.228 356.91 5.316C357.398 5.46 357.814 5.604 358.158 5.748C358.502 5.884 358.766 6.064 358.95 6.288C359.142 6.504 359.238 6.804 359.238 7.188C359.238 7.796 359.01 8.272 358.554 8.616C358.106 8.952 357.506 9.12 356.754 9.12Z" fill="#731943"/>
<path d="M164.96 10V1.48H168.536C168.92 1.48 169.272 1.56 169.592 1.72C169.912 1.88 170.192 2.092 170.432 2.356C170.672 2.62 170.856 2.916 170.984 3.244C171.112 3.572 171.176 3.908 171.176 4.252C171.176 4.724 171.068 5.176 170.852 5.608C170.644 6.032 170.344 6.376 169.952 6.64C169.568 6.904 169.12 7.036 168.608 7.036H166.304V10H164.96ZM166.304 5.848H168.524C168.78 5.848 169.004 5.78 169.196 5.644C169.388 5.5 169.536 5.308 169.64 5.068C169.752 4.828 169.808 4.556 169.808 4.252C169.808 3.94 169.744 3.664 169.616 3.424C169.488 3.184 169.32 3 169.112 2.872C168.912 2.736 168.692 2.668 168.452 2.668H166.304V5.848ZM175.797 4.864C175.285 4.872 174.829 4.988 174.429 5.212C174.037 5.436 173.757 5.752 173.589 6.16V10H172.269V3.724H173.493V5.128C173.709 4.696 173.993 4.352 174.345 4.096C174.697 3.832 175.069 3.688 175.461 3.664C175.541 3.664 175.605 3.664 175.653 3.664C175.709 3.664 175.757 3.668 175.797 3.676V4.864ZM179.484 10.12C178.996 10.12 178.552 10.036 178.152 9.868C177.76 9.692 177.42 9.456 177.132 9.16C176.844 8.856 176.62 8.512 176.46 8.128C176.308 7.736 176.232 7.32 176.232 6.88C176.232 6.288 176.368 5.748 176.64 5.26C176.912 4.764 177.292 4.368 177.78 4.072C178.268 3.768 178.84 3.616 179.496 3.616C180.152 3.616 180.716 3.768 181.188 4.072C181.668 4.368 182.04 4.76 182.304 5.248C182.568 5.736 182.7 6.26 182.7 6.82C182.7 6.916 182.696 7.008 182.688 7.096C182.68 7.176 182.672 7.244 182.664 7.3H177.636C177.66 7.668 177.76 7.992 177.936 8.272C178.12 8.544 178.352 8.76 178.632 8.92C178.912 9.072 179.212 9.148 179.532 9.148C179.884 9.148 180.216 9.06 180.528 8.884C180.848 8.708 181.064 8.476 181.176 8.188L182.304 8.512C182.168 8.816 181.96 9.092 181.68 9.34C181.408 9.58 181.084 9.772 180.708 9.916C180.332 10.052 179.924 10.12 179.484 10.12ZM177.6 6.424H181.392C181.368 6.064 181.264 5.748 181.08 5.476C180.904 5.196 180.676 4.98 180.396 4.828C180.124 4.668 179.82 4.588 179.484 4.588C179.156 4.588 178.852 4.668 178.572 4.828C178.3 4.98 178.076 5.196 177.9 5.476C177.724 5.748 177.624 6.064 177.6 6.424ZM184.078 10V4.9H183.238V3.88H184.078V3.628C184.078 3.116 184.158 2.672 184.318 2.296C184.486 1.92 184.718 1.632 185.014 1.432C185.318 1.224 185.674 1.12 186.082 1.12C186.338 1.12 186.59 1.156 186.838 1.228C187.086 1.292 187.322 1.384 187.546 1.504L187.258 2.488C187.138 2.408 186.994 2.348 186.826 2.308C186.666 2.26 186.51 2.236 186.358 2.236C186.054 2.236 185.818 2.352 185.65 2.584C185.482 2.816 185.398 3.152 185.398 3.592V3.88H187.006V4.9H185.398V10H184.078ZM190.722 10.12C190.234 10.12 189.79 10.036 189.39 9.868C188.998 9.692 188.658 9.456 188.37 9.16C188.082 8.856 187.858 8.512 187.698 8.128C187.546 7.736 187.47 7.32 187.47 6.88C187.47 6.288 187.606 5.748 187.878 5.26C188.15 4.764 188.53 4.368 189.018 4.072C189.506 3.768 190.078 3.616 190.734 3.616C191.39 3.616 191.954 3.768 192.426 4.072C192.906 4.368 193.278 4.76 193.542 5.248C193.806 5.736 193.938 6.26 193.938 6.82C193.938 6.916 193.934 7.008 193.926 7.096C193.918 7.176 193.91 7.244 193.902 7.3H188.874C188.898 7.668 188.998 7.992 189.174 8.272C189.358 8.544 189.59 8.76 189.87 8.92C190.15 9.072 190.45 9.148 190.77 9.148C191.122 9.148 191.454 9.06 191.766 8.884C192.086 8.708 192.302 8.476 192.414 8.188L193.542 8.512C193.406 8.816 193.198 9.092 192.918 9.34C192.646 9.58 192.322 9.772 191.946 9.916C191.57 10.052 191.162 10.12 190.722 10.12ZM188.838 6.424H192.63C192.606 6.064 192.502 5.748 192.318 5.476C192.142 5.196 191.914 4.98 191.634 4.828C191.362 4.668 191.058 4.588 190.722 4.588C190.394 4.588 190.09 4.668 189.81 4.828C189.538 4.98 189.314 5.196 189.138 5.476C188.962 5.748 188.862 6.064 188.838 6.424ZM198.543 4.864C198.031 4.872 197.575 4.988 197.175 5.212C196.783 5.436 196.503 5.752 196.335 6.16V10H195.015V3.724H196.239V5.128C196.455 4.696 196.739 4.352 197.091 4.096C197.443 3.832 197.815 3.688 198.207 3.664C198.287 3.664 198.351 3.664 198.399 3.664C198.455 3.664 198.503 3.668 198.543 3.676V4.864ZM202.23 10.12C201.742 10.12 201.298 10.036 200.898 9.868C200.506 9.692 200.166 9.456 199.878 9.16C199.59 8.856 199.366 8.512 199.206 8.128C199.054 7.736 198.978 7.32 198.978 6.88C198.978 6.288 199.114 5.748 199.386 5.26C199.658 4.764 200.038 4.368 200.526 4.072C201.014 3.768 201.586 3.616 202.242 3.616C202.898 3.616 203.462 3.768 203.934 4.072C204.414 4.368 204.786 4.76 205.05 5.248C205.314 5.736 205.446 6.26 205.446 6.82C205.446 6.916 205.442 7.008 205.434 7.096C205.426 7.176 205.418 7.244 205.41 7.3H200.382C200.406 7.668 200.506 7.992 200.682 8.272C200.866 8.544 201.098 8.76 201.378 8.92C201.658 9.072 201.958 9.148 202.278 9.148C202.63 9.148 202.962 9.06 203.274 8.884C203.594 8.708 203.81 8.476 203.922 8.188L205.05 8.512C204.914 8.816 204.706 9.092 204.426 9.34C204.154 9.58 203.83 9.772 203.454 9.916C203.078 10.052 202.67 10.12 202.23 10.12ZM200.346 6.424H204.138C204.114 6.064 204.01 5.748 203.826 5.476C203.65 5.196 203.422 4.98 203.142 4.828C202.87 4.668 202.566 4.588 202.23 4.588C201.902 4.588 201.598 4.668 201.318 4.828C201.046 4.98 200.822 5.196 200.646 5.476C200.47 5.748 200.37 6.064 200.346 6.424ZM200.478 2.38L201.726 1.24H202.674L203.922 2.38L203.214 2.716L202.194 1.96L201.174 2.716L200.478 2.38ZM212.15 10H210.83V6.484C210.83 5.9 210.734 5.472 210.542 5.2C210.358 4.928 210.082 4.792 209.714 4.792C209.458 4.792 209.202 4.856 208.946 4.984C208.698 5.112 208.474 5.288 208.274 5.512C208.074 5.728 207.93 5.98 207.842 6.268V10H206.522V3.724H207.722V4.984C207.882 4.704 208.09 4.464 208.346 4.264C208.61 4.056 208.906 3.896 209.234 3.784C209.562 3.672 209.91 3.616 210.278 3.616C210.654 3.616 210.962 3.684 211.202 3.82C211.45 3.956 211.642 4.144 211.778 4.384C211.922 4.616 212.018 4.888 212.066 5.2C212.122 5.504 212.15 5.828 212.15 6.172V10ZM216.527 10.12C216.039 10.12 215.595 10.036 215.195 9.868C214.803 9.692 214.463 9.452 214.175 9.148C213.887 8.844 213.663 8.496 213.503 8.104C213.351 7.712 213.275 7.296 213.275 6.856C213.275 6.264 213.407 5.724 213.671 5.236C213.943 4.748 214.319 4.356 214.799 4.06C215.287 3.764 215.863 3.616 216.527 3.616C217.167 3.616 217.723 3.76 218.195 4.048C218.675 4.328 219.027 4.704 219.251 5.176L217.967 5.584C217.823 5.32 217.619 5.116 217.355 4.972C217.099 4.82 216.815 4.744 216.503 4.744C216.151 4.744 215.831 4.836 215.543 5.02C215.263 5.196 215.039 5.444 214.871 5.764C214.711 6.076 214.631 6.44 214.631 6.856C214.631 7.256 214.715 7.62 214.883 7.948C215.051 8.268 215.275 8.524 215.555 8.716C215.843 8.9 216.163 8.992 216.515 8.992C216.731 8.992 216.939 8.956 217.139 8.884C217.347 8.804 217.527 8.7 217.679 8.572C217.831 8.436 217.939 8.288 218.003 8.128L219.299 8.512C219.163 8.824 218.959 9.1 218.687 9.34C218.423 9.58 218.107 9.772 217.739 9.916C217.379 10.052 216.975 10.12 216.527 10.12ZM220.386 10V3.724H221.706V10H220.386ZM220.386 2.692V1.24H221.706V2.692H220.386ZM222.836 8.164C222.836 7.764 222.948 7.416 223.172 7.12C223.404 6.816 223.72 6.584 224.12 6.424C224.52 6.256 224.984 6.172 225.512 6.172C225.792 6.172 226.076 6.192 226.364 6.232C226.66 6.272 226.92 6.336 227.144 6.424V6.028C227.144 5.588 227.012 5.244 226.748 4.996C226.484 4.748 226.104 4.624 225.608 4.624C225.256 4.624 224.924 4.688 224.612 4.816C224.3 4.936 223.968 5.108 223.616 5.332L223.172 4.444C223.588 4.164 224.004 3.956 224.42 3.82C224.844 3.684 225.288 3.616 225.752 3.616C226.592 3.616 227.252 3.84 227.732 4.288C228.22 4.728 228.464 5.356 228.464 6.172V8.512C228.464 8.664 228.488 8.772 228.536 8.836C228.592 8.9 228.684 8.936 228.812 8.944V10C228.692 10.024 228.584 10.04 228.488 10.048C228.392 10.056 228.312 10.06 228.248 10.06C227.968 10.06 227.756 9.992 227.612 9.856C227.468 9.72 227.384 9.56 227.36 9.376L227.324 9.016C227.052 9.368 226.704 9.64 226.28 9.832C225.856 10.024 225.428 10.12 224.996 10.12C224.58 10.12 224.208 10.036 223.88 9.868C223.552 9.692 223.296 9.456 223.112 9.16C222.928 8.864 222.836 8.532 222.836 8.164ZM226.832 8.548C226.928 8.444 227.004 8.34 227.06 8.236C227.116 8.132 227.144 8.04 227.144 7.96V7.24C226.92 7.152 226.684 7.088 226.436 7.048C226.188 7 225.944 6.976 225.704 6.976C225.224 6.976 224.832 7.072 224.528 7.264C224.232 7.456 224.084 7.72 224.084 8.056C224.084 8.24 224.132 8.416 224.228 8.584C224.332 8.752 224.476 8.888 224.66 8.992C224.852 9.096 225.088 9.148 225.368 9.148C225.656 9.148 225.932 9.092 226.196 8.98C226.46 8.868 226.672 8.724 226.832 8.548ZM232.297 10.12C231.769 10.12 231.269 10.036 230.797 9.868C230.325 9.692 229.921 9.432 229.585 9.088L230.077 8.2C230.437 8.52 230.797 8.752 231.157 8.896C231.525 9.04 231.889 9.112 232.249 9.112C232.617 9.112 232.917 9.044 233.149 8.908C233.381 8.764 233.497 8.556 233.497 8.284C233.497 8.084 233.437 7.936 233.317 7.84C233.197 7.744 233.021 7.66 232.789 7.588C232.565 7.516 232.293 7.436 231.973 7.348C231.525 7.212 231.149 7.072 230.845 6.928C230.541 6.776 230.313 6.592 230.161 6.376C230.009 6.16 229.933 5.884 229.933 5.548C229.933 5.14 230.037 4.792 230.245 4.504C230.453 4.216 230.741 3.996 231.109 3.844C231.485 3.692 231.917 3.616 232.405 3.616C232.861 3.616 233.281 3.688 233.665 3.832C234.057 3.968 234.401 4.184 234.697 4.48L234.133 5.356C233.853 5.1 233.565 4.912 233.269 4.792C232.981 4.672 232.669 4.612 232.333 4.612C232.141 4.612 231.957 4.636 231.781 4.684C231.605 4.724 231.457 4.804 231.337 4.924C231.225 5.036 231.169 5.196 231.169 5.404C231.169 5.572 231.217 5.708 231.313 5.812C231.409 5.916 231.553 6.004 231.745 6.076C231.937 6.148 232.173 6.228 232.453 6.316C232.941 6.46 233.357 6.604 233.701 6.748C234.045 6.884 234.309 7.064 234.493 7.288C234.685 7.504 234.781 7.804 234.781 8.188C234.781 8.796 234.553 9.272 234.097 9.616C233.649 9.952 233.049 10.12 232.297 10.12Z" fill="#731943"/>
<path d="M20.96 10V1.48H24.668C25.052 1.48 25.404 1.56 25.724 1.72C26.044 1.88 26.32 2.092 26.552 2.356C26.792 2.62 26.976 2.916 27.104 3.244C27.24 3.572 27.308 3.908 27.308 4.252C27.308 4.628 27.24 4.988 27.104 5.332C26.968 5.676 26.772 5.972 26.516 6.22C26.268 6.468 25.976 6.648 25.64 6.76L27.644 10H26.132L24.284 7.036H22.304V10H20.96ZM22.304 5.848H24.656C24.904 5.848 25.124 5.776 25.316 5.632C25.508 5.488 25.66 5.296 25.772 5.056C25.884 4.808 25.94 4.54 25.94 4.252C25.94 3.956 25.876 3.692 25.748 3.46C25.62 3.22 25.452 3.028 25.244 2.884C25.044 2.74 24.824 2.668 24.584 2.668H22.304V5.848ZM31.3704 10.12C30.8824 10.12 30.4384 10.036 30.0384 9.868C29.6464 9.692 29.3064 9.456 29.0184 9.16C28.7304 8.856 28.5064 8.512 28.3464 8.128C28.1944 7.736 28.1184 7.32 28.1184 6.88C28.1184 6.288 28.2544 5.748 28.5264 5.26C28.7984 4.764 29.1784 4.368 29.6664 4.072C30.1544 3.768 30.7264 3.616 31.3824 3.616C32.0384 3.616 32.6024 3.768 33.0744 4.072C33.5544 4.368 33.9264 4.76 34.1904 5.248C34.4544 5.736 34.5864 6.26 34.5864 6.82C34.5864 6.916 34.5824 7.008 34.5744 7.096C34.5664 7.176 34.5584 7.244 34.5504 7.3H29.5224C29.5464 7.668 29.6464 7.992 29.8224 8.272C30.0064 8.544 30.2384 8.76 30.5184 8.92C30.7984 9.072 31.0984 9.148 31.4184 9.148C31.7704 9.148 32.1024 9.06 32.4144 8.884C32.7344 8.708 32.9504 8.476 33.0624 8.188L34.1904 8.512C34.0544 8.816 33.8464 9.092 33.5664 9.34C33.2944 9.58 32.9704 9.772 32.5944 9.916C32.2184 10.052 31.8104 10.12 31.3704 10.12ZM29.4864 6.424H33.2784C33.2544 6.064 33.1504 5.748 32.9664 5.476C32.7904 5.196 32.5624 4.98 32.2824 4.828C32.0104 4.668 31.7064 4.588 31.3704 4.588C31.0424 4.588 30.7384 4.668 30.4584 4.828C30.1864 4.98 29.9624 5.196 29.7864 5.476C29.6104 5.748 29.5104 6.064 29.4864 6.424ZM38.5071 10.12C38.0191 10.12 37.5751 10.036 37.1751 9.868C36.7831 9.692 36.4431 9.452 36.1551 9.148C35.8671 8.844 35.6431 8.496 35.4831 8.104C35.3311 7.712 35.2551 7.296 35.2551 6.856C35.2551 6.264 35.3871 5.724 35.6511 5.236C35.9231 4.748 36.2991 4.356 36.7791 4.06C37.2671 3.764 37.8431 3.616 38.5071 3.616C39.1471 3.616 39.7031 3.76 40.1751 4.048C40.6551 4.328 41.0071 4.704 41.2311 5.176L39.9471 5.584C39.8031 5.32 39.5991 5.116 39.3351 4.972C39.0791 4.82 38.7951 4.744 38.4831 4.744C38.1311 4.744 37.8111 4.836 37.5231 5.02C37.2431 5.196 37.0191 5.444 36.8511 5.764C36.6911 6.076 36.6111 6.44 36.6111 6.856C36.6111 7.256 36.6951 7.62 36.8631 7.948C37.0311 8.268 37.2551 8.524 37.5351 8.716C37.8231 8.9 38.1431 8.992 38.4951 8.992C38.7111 8.992 38.9191 8.956 39.1191 8.884C39.3271 8.804 39.5071 8.7 39.6591 8.572C39.8111 8.436 39.9191 8.288 39.9831 8.128L41.2791 8.512C41.1431 8.824 40.9391 9.1 40.6671 9.34C40.4031 9.58 40.0871 9.772 39.7191 9.916C39.3591 10.052 38.9551 10.12 38.5071 10.12ZM45.1276 10.12C44.6316 10.12 44.1876 10.036 43.7956 9.868C43.4036 9.692 43.0636 9.452 42.7756 9.148C42.4956 8.844 42.2796 8.5 42.1276 8.116C41.9756 7.724 41.8996 7.308 41.8996 6.868C41.8996 6.428 41.9756 6.012 42.1276 5.62C42.2796 5.228 42.4956 4.884 42.7756 4.588C43.0636 4.284 43.4036 4.048 43.7956 3.88C44.1956 3.704 44.6396 3.616 45.1276 3.616C45.6156 3.616 46.0556 3.704 46.4476 3.88C46.8476 4.048 47.1876 4.284 47.4676 4.588C47.7556 4.884 47.9756 5.228 48.1276 5.62C48.2796 6.012 48.3556 6.428 48.3556 6.868C48.3556 7.308 48.2796 7.724 48.1276 8.116C47.9756 8.5 47.7556 8.844 47.4676 9.148C47.1876 9.452 46.8476 9.692 46.4476 9.868C46.0556 10.036 45.6156 10.12 45.1276 10.12ZM43.2556 6.88C43.2556 7.28 43.3396 7.64 43.5076 7.96C43.6756 8.28 43.8996 8.532 44.1796 8.716C44.4596 8.9 44.7756 8.992 45.1276 8.992C45.4716 8.992 45.7836 8.9 46.0636 8.716C46.3516 8.524 46.5796 8.268 46.7476 7.948C46.9156 7.62 46.9996 7.26 46.9996 6.868C46.9996 6.468 46.9156 6.108 46.7476 5.788C46.5796 5.468 46.3516 5.216 46.0636 5.032C45.7836 4.84 45.4716 4.744 45.1276 4.744C44.7756 4.744 44.4596 4.84 44.1796 5.032C43.8996 5.224 43.6756 5.48 43.5076 5.8C43.3396 6.112 43.2556 6.472 43.2556 6.88ZM55.1544 10H53.8344V6.484C53.8344 5.9 53.7384 5.472 53.5464 5.2C53.3624 4.928 53.0864 4.792 52.7184 4.792C52.4624 4.792 52.2064 4.856 51.9504 4.984C51.7024 5.112 51.4784 5.288 51.2784 5.512C51.0784 5.728 50.9344 5.98 50.8464 6.268V10H49.5264V3.724H50.7264V4.984C50.8864 4.704 51.0944 4.464 51.3504 4.264C51.6144 4.056 51.9104 3.896 52.2384 3.784C52.5664 3.672 52.9144 3.616 53.2824 3.616C53.6584 3.616 53.9664 3.684 54.2064 3.82C54.4544 3.956 54.6464 4.144 54.7824 4.384C54.9264 4.616 55.0224 4.888 55.0704 5.2C55.1264 5.504 55.1544 5.828 55.1544 6.172V10ZM62.3145 10H60.9945V6.484C60.9945 5.916 60.8905 5.492 60.6825 5.212C60.4745 4.932 60.1825 4.792 59.8065 4.792C59.5745 4.792 59.3345 4.856 59.0865 4.984C58.8385 5.112 58.6185 5.288 58.4265 5.512C58.2345 5.728 58.0945 5.98 58.0065 6.268V10H56.6865V1.24H58.0065V4.984C58.2465 4.56 58.5745 4.228 58.9905 3.988C59.4065 3.74 59.8545 3.616 60.3345 3.616C60.7265 3.616 61.0505 3.684 61.3065 3.82C61.5625 3.956 61.7625 4.144 61.9065 4.384C62.0585 4.616 62.1625 4.888 62.2185 5.2C62.2825 5.504 62.3145 5.828 62.3145 6.172V10ZM66.6907 10.12C66.2027 10.12 65.7587 10.036 65.3587 9.868C64.9667 9.692 64.6267 9.456 64.3387 9.16C64.0507 8.856 63.8267 8.512 63.6667 8.128C63.5147 7.736 63.4387 7.32 63.4387 6.88C63.4387 6.288 63.5747 5.748 63.8467 5.26C64.1187 4.764 64.4987 4.368 64.9867 4.072C65.4747 3.768 66.0467 3.616 66.7027 3.616C67.3587 3.616 67.9227 3.768 68.3947 4.072C68.8747 4.368 69.2467 4.76 69.5107 5.248C69.7747 5.736 69.9067 6.26 69.9067 6.82C69.9067 6.916 69.9027 7.008 69.8947 7.096C69.8867 7.176 69.8787 7.244 69.8707 7.3H64.8427C64.8667 7.668 64.9667 7.992 65.1427 8.272C65.3267 8.544 65.5587 8.76 65.8387 8.92C66.1187 9.072 66.4187 9.148 66.7387 9.148C67.0907 9.148 67.4227 9.06 67.7347 8.884C68.0547 8.708 68.2707 8.476 68.3827 8.188L69.5107 8.512C69.3747 8.816 69.1667 9.092 68.8867 9.34C68.6147 9.58 68.2907 9.772 67.9147 9.916C67.5387 10.052 67.1307 10.12 66.6907 10.12ZM64.8067 6.424H68.5987C68.5747 6.064 68.4707 5.748 68.2867 5.476C68.1107 5.196 67.8827 4.98 67.6027 4.828C67.3307 4.668 67.0267 4.588 66.6907 4.588C66.3627 4.588 66.0587 4.668 65.7787 4.828C65.5067 4.98 65.2827 5.196 65.1067 5.476C64.9307 5.748 64.8307 6.064 64.8067 6.424ZM73.8274 10.12C73.3394 10.12 72.8954 10.036 72.4954 9.868C72.1034 9.692 71.7634 9.452 71.4754 9.148C71.1874 8.844 70.9634 8.496 70.8034 8.104C70.6514 7.712 70.5754 7.296 70.5754 6.856C70.5754 6.264 70.7074 5.724 70.9714 5.236C71.2434 4.748 71.6194 4.356 72.0994 4.06C72.5874 3.764 73.1634 3.616 73.8274 3.616C74.4674 3.616 75.0234 3.76 75.4954 4.048C75.9754 4.328 76.3274 4.704 76.5514 5.176L75.2674 5.584C75.1234 5.32 74.9194 5.116 74.6554 4.972C74.3994 4.82 74.1154 4.744 73.8034 4.744C73.4514 4.744 73.1314 4.836 72.8434 5.02C72.5634 5.196 72.3394 5.444 72.1714 5.764C72.0114 6.076 71.9314 6.44 71.9314 6.856C71.9314 7.256 72.0154 7.62 72.1834 7.948C72.3514 8.268 72.5754 8.524 72.8554 8.716C73.1434 8.9 73.4634 8.992 73.8154 8.992C74.0314 8.992 74.2394 8.956 74.4394 8.884C74.6474 8.804 74.8274 8.7 74.9794 8.572C75.1314 8.436 75.2394 8.288 75.3034 8.128L76.5994 8.512C76.4634 8.824 76.2594 9.1 75.9874 9.34C75.7234 9.58 75.4074 9.772 75.0394 9.916C74.6794 10.052 74.2754 10.12 73.8274 10.12ZM77.6865 10V3.724H79.0065V10H77.6865ZM77.6865 2.692V1.24H79.0065V2.692H77.6865ZM90.1928 10H88.8728V6.484C88.8728 5.9 88.7768 5.472 88.5848 5.2C88.3928 4.928 88.1128 4.792 87.7448 4.792C87.3768 4.792 87.0328 4.932 86.7128 5.212C86.4008 5.484 86.1808 5.84 86.0528 6.28V10H84.7328V6.484C84.7328 5.9 84.6368 5.472 84.4448 5.2C84.2528 4.928 83.9768 4.792 83.6168 4.792C83.2488 4.792 82.9048 4.928 82.5848 5.2C82.2728 5.472 82.0488 5.828 81.9128 6.268V10H80.5928V3.724H81.7928V4.984C82.0408 4.544 82.3648 4.208 82.7648 3.976C83.1728 3.736 83.6368 3.616 84.1568 3.616C84.6768 3.616 85.0848 3.752 85.3808 4.024C85.6848 4.296 85.8728 4.636 85.9448 5.044C86.2168 4.58 86.5488 4.228 86.9408 3.988C87.3408 3.74 87.7968 3.616 88.3088 3.616C88.6768 3.616 88.9848 3.684 89.2328 3.82C89.4808 3.956 89.6728 4.144 89.8088 4.384C89.9448 4.616 90.0408 4.888 90.0968 5.2C90.1608 5.504 90.1928 5.828 90.1928 6.172V10ZM94.5579 10.12C94.0699 10.12 93.6259 10.036 93.2259 9.868C92.8339 9.692 92.4939 9.456 92.2059 9.16C91.9179 8.856 91.6939 8.512 91.5339 8.128C91.3819 7.736 91.3059 7.32 91.3059 6.88C91.3059 6.288 91.4419 5.748 91.7139 5.26C91.9859 4.764 92.3659 4.368 92.8539 4.072C93.3419 3.768 93.9139 3.616 94.5699 3.616C95.2259 3.616 95.7899 3.768 96.2619 4.072C96.7419 4.368 97.1139 4.76 97.3779 5.248C97.6419 5.736 97.7739 6.26 97.7739 6.82C97.7739 6.916 97.7699 7.008 97.7619 7.096C97.7539 7.176 97.7459 7.244 97.7379 7.3H92.7099C92.7339 7.668 92.8339 7.992 93.0099 8.272C93.1939 8.544 93.4259 8.76 93.7059 8.92C93.9859 9.072 94.2859 9.148 94.6059 9.148C94.9579 9.148 95.2899 9.06 95.6019 8.884C95.9219 8.708 96.1379 8.476 96.2499 8.188L97.3779 8.512C97.2419 8.816 97.0339 9.092 96.7539 9.34C96.4819 9.58 96.1579 9.772 95.7819 9.916C95.4059 10.052 94.9979 10.12 94.5579 10.12ZM92.6739 6.424H96.4659C96.4419 6.064 96.3379 5.748 96.1539 5.476C95.9779 5.196 95.7499 4.98 95.4699 4.828C95.1979 4.668 94.8939 4.588 94.5579 4.588C94.2299 4.588 93.9259 4.668 93.6459 4.828C93.3739 4.98 93.1499 5.196 92.9739 5.476C92.7979 5.748 92.6979 6.064 92.6739 6.424ZM104.479 10H103.159V6.484C103.159 5.9 103.063 5.472 102.871 5.2C102.687 4.928 102.411 4.792 102.043 4.792C101.787 4.792 101.531 4.856 101.275 4.984C101.027 5.112 100.803 5.288 100.603 5.512C100.403 5.728 100.259 5.98 100.171 6.268V10H98.8506V3.724H100.051V4.984C100.211 4.704 100.419 4.464 100.675 4.264C100.939 4.056 101.235 3.896 101.563 3.784C101.891 3.672 102.239 3.616 102.607 3.616C102.983 3.616 103.291 3.684 103.531 3.82C103.779 3.956 103.971 4.144 104.107 4.384C104.251 4.616 104.347 4.888 104.395 5.2C104.451 5.504 104.479 5.828 104.479 6.172V10ZM109.456 9.676C109.344 9.732 109.204 9.792 109.036 9.856C108.868 9.92 108.676 9.976 108.46 10.024C108.252 10.072 108.036 10.096 107.812 10.096C107.54 10.096 107.288 10.048 107.056 9.952C106.824 9.856 106.636 9.704 106.492 9.496C106.356 9.28 106.288 9.004 106.288 8.668V4.744H105.46V3.724H106.288V1.66H107.608V3.724H108.976V4.744H107.608V8.248C107.624 8.464 107.692 8.624 107.812 8.728C107.94 8.832 108.096 8.884 108.28 8.884C108.464 8.884 108.64 8.852 108.808 8.788C108.976 8.724 109.1 8.672 109.18 8.632L109.456 9.676ZM113.108 10.12C112.612 10.12 112.168 10.036 111.776 9.868C111.384 9.692 111.044 9.452 110.756 9.148C110.476 8.844 110.26 8.5 110.108 8.116C109.956 7.724 109.88 7.308 109.88 6.868C109.88 6.428 109.956 6.012 110.108 5.62C110.26 5.228 110.476 4.884 110.756 4.588C111.044 4.284 111.384 4.048 111.776 3.88C112.176 3.704 112.62 3.616 113.108 3.616C113.596 3.616 114.036 3.704 114.428 3.88C114.828 4.048 115.168 4.284 115.448 4.588C115.736 4.884 115.956 5.228 116.108 5.62C116.26 6.012 116.336 6.428 116.336 6.868C116.336 7.308 116.26 7.724 116.108 8.116C115.956 8.5 115.736 8.844 115.448 9.148C115.168 9.452 114.828 9.692 114.428 9.868C114.036 10.036 113.596 10.12 113.108 10.12ZM111.236 6.88C111.236 7.28 111.32 7.64 111.488 7.96C111.656 8.28 111.88 8.532 112.16 8.716C112.44 8.9 112.756 8.992 113.108 8.992C113.452 8.992 113.764 8.9 114.044 8.716C114.332 8.524 114.56 8.268 114.728 7.948C114.896 7.62 114.98 7.26 114.98 6.868C114.98 6.468 114.896 6.108 114.728 5.788C114.56 5.468 114.332 5.216 114.044 5.032C113.764 4.84 113.452 4.744 113.108 4.744C112.756 4.744 112.44 4.84 112.16 5.032C111.88 5.224 111.656 5.48 111.488 5.8C111.32 6.112 111.236 6.472 111.236 6.88Z" fill="#731943"/>
<line y1="27.5" x2="390" y2="27.5" stroke="#741944" stroke-opacity="0.68"/>
<circle cx="64.5" cy="27.5" r="11.5" fill="#741944"/>
<circle cx="195.5" cy="27.5" r="11.5" fill="#741944" fill-opacity="0.68"/>
<circle cx="336.5" cy="27.5" r="11.5" fill="#741944" fill-opacity="0.68"/>
</svg>
