<svg width="18" height="18" viewBox="0 0 18 18" fill="none" xmlns="http://www.w3.org/2000/svg">
<g clip-path="url(#clip0_60_16)">
<path fill-rule="evenodd" clip-rule="evenodd" d="M8.98975 1.2691L11.7817 0L13.3125 2.73997L16.2817 3.43767L15.9888 6.59964L18 8.99923L15.9961 11.3773L16.2817 14.5623L13.3301 15.2477L11.7817 18L9.01025 16.7294L6.21826 18L4.6875 15.26L1.71826 14.5623L2.01123 11.3988L0 8.99923L2.00391 6.6212L1.71826 3.43767L4.66992 2.75229L6.21826 0L8.98975 1.2691Z" fill="#FCB823"/>
<path d="M5.55464 10.0111C4.66548 9.00537 6.03071 7.50678 7.01948 8.45553C7.36811 8.78975 7.87495 9.27798 8.22651 9.60912L10.9365 6.1083C11.8798 5.08255 13.3696 6.58884 12.4379 7.62075L9.03364 11.8901C8.84744 12.0969 8.59213 12.2195 8.32157 12.2322C8.05101 12.2448 7.78636 12.1465 7.58345 11.9579C7.0063 11.3803 6.15962 10.5502 5.55464 10.0111Z" fill="white"/>
</g>
<defs>
<clipPath id="clip0_60_16">
<rect width="18" height="18" fill="white"/>
</clipPath>
</defs>
</svg>
